<svg width="37" height="21" viewBox="0 0 37 21" fill="none" xmlns="http://www.w3.org/2000/svg">
<path d="M3.87402 0.890625L6.19824 6.69141L8.52246 0.890625H9.73828V8H8.80078V5.23145L8.88867 2.24316L6.55469 8H5.83691L3.50781 2.25781L3.60059 5.23145V8H2.66309V0.890625H3.87402ZM15.4121 4.71387H12.3311V7.2334H15.9102V8H11.3936V0.890625H15.8613V1.66211H12.3311V3.94727H15.4121V4.71387ZM22.0869 1.66211H19.8018V8H18.8691V1.66211H16.5889V0.890625H22.0869V1.66211ZM27.1602 4.71387H24.0791V7.2334H27.6582V8H23.1416V0.890625H27.6094V1.66211H24.0791V3.94727H27.1602V4.71387ZM31.4326 5.12402H29.7627V8H28.8203V0.890625H31.1738C31.9746 0.890625 32.5898 1.07292 33.0195 1.4375C33.4525 1.80208 33.6689 2.33268 33.6689 3.0293C33.6689 3.47201 33.5485 3.85775 33.3076 4.18652C33.07 4.5153 32.738 4.76107 32.3115 4.92383L33.9814 7.94141V8H32.9756L31.4326 5.12402ZM29.7627 4.35742H31.2031C31.6686 4.35742 32.0381 4.23698 32.3115 3.99609C32.5882 3.75521 32.7266 3.43294 32.7266 3.0293C32.7266 2.58984 32.5947 2.25293 32.3311 2.01855C32.0706 1.78418 31.693 1.66536 31.1982 1.66211H29.7627V4.35742ZM1.6084 12.8906L3.93262 18.6914L6.25684 12.8906H7.47266V20H6.53516V17.2314L6.62305 14.2432L4.28906 20H3.57129L1.24219 14.2578L1.33496 17.2314V20H0.397461V12.8906H1.6084ZM8.74707 17.3096C8.74707 16.792 8.84798 16.3265 9.0498 15.9131C9.25488 15.4997 9.53809 15.1807 9.89941 14.9561C10.264 14.7314 10.679 14.6191 11.1445 14.6191C11.8639 14.6191 12.445 14.8682 12.8877 15.3662C13.3337 15.8643 13.5566 16.5267 13.5566 17.3535V17.417C13.5566 17.9313 13.4574 18.3936 13.2588 18.8037C13.0635 19.2106 12.7819 19.528 12.4141 19.7559C12.0495 19.9837 11.6296 20.0977 11.1543 20.0977C10.4382 20.0977 9.8571 19.8486 9.41113 19.3506C8.96842 18.8525 8.74707 18.1934 8.74707 17.373V17.3096ZM9.65527 17.417C9.65527 18.0029 9.79036 18.4733 10.0605 18.8281C10.334 19.1829 10.6986 19.3604 11.1543 19.3604C11.6133 19.3604 11.9779 19.1813 12.248 18.8232C12.5182 18.4619 12.6533 17.9574 12.6533 17.3096C12.6533 16.7301 12.515 16.2614 12.2383 15.9033C11.9648 15.542 11.6003 15.3613 11.1445 15.3613C10.6986 15.3613 10.3389 15.5387 10.0654 15.8936C9.79199 16.2484 9.65527 16.7562 9.65527 17.417ZM14.4697 17.3145C14.4697 16.5039 14.6618 15.8529 15.0459 15.3613C15.43 14.8665 15.9329 14.6191 16.5547 14.6191C17.1732 14.6191 17.6631 14.8307 18.0244 15.2539V12.5H18.9277V20H18.0977L18.0537 19.4336C17.6924 19.8763 17.1895 20.0977 16.5449 20.0977C15.9329 20.0977 15.4333 19.847 15.0459 19.3457C14.6618 18.8444 14.4697 18.1901 14.4697 17.3828V17.3145ZM15.373 17.417C15.373 18.016 15.4967 18.4847 15.7441 18.8232C15.9915 19.1618 16.3333 19.3311 16.7695 19.3311C17.3424 19.3311 17.7607 19.0739 18.0244 18.5596V16.1328C17.7542 15.6348 17.3392 15.3857 16.7793 15.3857C16.3366 15.3857 15.9915 15.5566 15.7441 15.8984C15.4967 16.2402 15.373 16.7464 15.373 17.417ZM23.5957 19.4775C23.2441 19.891 22.7282 20.0977 22.0479 20.0977C21.4847 20.0977 21.055 19.9349 20.7588 19.6094C20.4658 19.2806 20.3177 18.7956 20.3145 18.1543V14.7168H21.2178V18.1299C21.2178 18.9307 21.5433 19.3311 22.1943 19.3311C22.8844 19.3311 23.3434 19.0739 23.5713 18.5596V14.7168H24.4746V20H23.6152L23.5957 19.4775ZM26.833 20H25.9297V12.5H26.833V20ZM31.5449 20C31.4928 19.8958 31.4505 19.7103 31.418 19.4434C30.998 19.8796 30.4967 20.0977 29.9141 20.0977C29.3932 20.0977 28.9652 19.9512 28.6299 19.6582C28.2979 19.362 28.1318 18.9876 28.1318 18.5352C28.1318 17.985 28.3402 17.5586 28.7568 17.2559C29.1768 16.9499 29.766 16.7969 30.5244 16.7969H31.4033V16.3818C31.4033 16.0661 31.3089 15.8154 31.1201 15.6299C30.9313 15.4411 30.653 15.3467 30.2852 15.3467C29.9629 15.3467 29.6927 15.4281 29.4746 15.5908C29.2565 15.7536 29.1475 15.9505 29.1475 16.1816H28.2393C28.2393 15.918 28.332 15.6641 28.5176 15.4199C28.7064 15.1725 28.9603 14.9772 29.2793 14.834C29.6016 14.6908 29.9548 14.6191 30.3389 14.6191C30.9476 14.6191 31.4245 14.7721 31.7695 15.0781C32.1146 15.3809 32.2936 15.7992 32.3066 16.333V18.7646C32.3066 19.2497 32.3685 19.6354 32.4922 19.9219V20H31.5449ZM30.0459 19.3115C30.3291 19.3115 30.5977 19.2383 30.8516 19.0918C31.1055 18.9453 31.2894 18.7549 31.4033 18.5205V17.4365H30.6953C29.5885 17.4365 29.0352 17.7604 29.0352 18.4082C29.0352 18.6914 29.1296 18.9128 29.3184 19.0723C29.5072 19.2318 29.7497 19.3115 30.0459 19.3115ZM36.2764 15.5273C36.1396 15.5046 35.9915 15.4932 35.832 15.4932C35.2396 15.4932 34.8376 15.7454 34.626 16.25V20H33.7227V14.7168H34.6016L34.6162 15.3271C34.9124 14.8551 35.3324 14.6191 35.876 14.6191C36.0518 14.6191 36.1852 14.6419 36.2764 14.6875V15.5273Z" fill="black"/>
</svg>
