<svg width="39" height="23" viewBox="0 0 39 23" fill="none" xmlns="http://www.w3.org/2000/svg">
<path d="M4.67969 0.46875L7.46875 7.42969L10.2578 0.46875H11.7168V9H10.5918V5.67773L10.6973 2.0918L7.89648 9H7.03516L4.24023 2.10938L4.35156 5.67773V9H3.22656V0.46875H4.67969ZM19.709 0.46875V6.26953C19.7051 7.07422 19.4512 7.73242 18.9473 8.24414C18.4473 8.75586 17.7676 9.04297 16.9082 9.10547L16.6094 9.11719C15.6758 9.11719 14.9316 8.86523 14.377 8.36133C13.8223 7.85742 13.541 7.16406 13.5332 6.28125V0.46875H14.6465V6.24609C14.6465 6.86328 14.8164 7.34375 15.1562 7.6875C15.4961 8.02734 15.9805 8.19727 16.6094 8.19727C17.2461 8.19727 17.7324 8.02734 18.0684 7.6875C18.4082 7.34766 18.5781 6.86914 18.5781 6.25195V0.46875H19.709ZM22.6152 8.08008H26.6582V9H21.4844V0.46875H22.6152V8.08008ZM32.2188 1.39453H29.4766V9H28.3574V1.39453H25.6211V0.46875H32.2188V1.39453ZM34.6914 9H33.5664V0.46875H34.6914V9ZM2.04883 14.4688L4.83789 21.4297L7.62695 14.4688H9.08594V23H7.96094V19.6777L8.06641 16.0918L5.26562 23H4.4043L1.60938 16.1094L1.7207 19.6777V23H0.595703V14.4688H2.04883ZM15.8945 19.0566H12.1973V22.0801H16.4922V23H11.0723V14.4688H16.4336V15.3945H12.1973V18.1367H15.8945V19.0566ZM23.9043 15.3945H21.1621V23H20.043V15.3945H17.3066V14.4688H23.9043V15.3945ZM29.9922 19.0566H26.2949V22.0801H30.5898V23H25.1699V14.4688H30.5312V15.3945H26.2949V18.1367H29.9922V19.0566ZM35.1191 19.5488H33.1152V23H31.9844V14.4688H34.8086C35.7695 14.4688 36.5078 14.6875 37.0234 15.125C37.543 15.5625 37.8027 16.1992 37.8027 17.0352C37.8027 17.5664 37.6582 18.0293 37.3691 18.4238C37.084 18.8184 36.6855 19.1133 36.1738 19.3086L38.1777 22.9297V23H36.9707L35.1191 19.5488ZM33.1152 18.6289H34.8438C35.4023 18.6289 35.8457 18.4844 36.1738 18.1953C36.5059 17.9062 36.6719 17.5195 36.6719 17.0352C36.6719 16.5078 36.5137 16.1035 36.1973 15.8223C35.8848 15.541 35.4316 15.3984 34.8379 15.3945H33.1152V18.6289Z" fill="black"/>
</svg>
