<svg width="37" height="49" viewBox="0 0 37 49" fill="none" xmlns="http://www.w3.org/2000/svg">
<path d="M9.95801 6.01221C9.95801 7.05713 9.78223 7.97021 9.43066 8.75146C9.0791 9.52783 8.58105 10.1211 7.93652 10.5312C7.29199 10.9414 6.54004 11.1465 5.68066 11.1465C4.84082 11.1465 4.09619 10.9414 3.44678 10.5312C2.79736 10.1162 2.29199 9.52783 1.93066 8.76611C1.57422 7.99951 1.39111 7.11328 1.38135 6.10742V5.33838C1.38135 4.31299 1.55957 3.40723 1.91602 2.62109C2.27246 1.83496 2.77539 1.23438 3.4248 0.819336C4.0791 0.399414 4.82617 0.189453 5.66602 0.189453C6.52051 0.189453 7.27246 0.396973 7.92188 0.812012C8.57617 1.22217 9.0791 1.82031 9.43066 2.60645C9.78223 3.3877 9.95801 4.29834 9.95801 5.33838V6.01221ZM8.55908 5.32373C8.55908 4.05908 8.30518 3.08984 7.79736 2.41602C7.28955 1.7373 6.5791 1.39795 5.66602 1.39795C4.77734 1.39795 4.07666 1.7373 3.56396 2.41602C3.05615 3.08984 2.79492 4.02734 2.78027 5.22852V6.01221C2.78027 7.23779 3.03662 8.20215 3.54932 8.90527C4.06689 9.60352 4.77734 9.95264 5.68066 9.95264C6.58887 9.95264 7.29199 9.62305 7.79004 8.96387C8.28809 8.2998 8.54443 7.3501 8.55908 6.11475V5.32373ZM18.5493 7.12549C18.5493 8.33154 18.2734 9.30322 17.7217 10.0405C17.1699 10.7778 16.4229 11.1465 15.4805 11.1465C14.5186 11.1465 13.7617 10.8413 13.21 10.231V14.0469H11.855V3.0752H13.0928L13.1587 3.9541C13.7104 3.27051 14.4771 2.92871 15.4585 2.92871C16.4106 2.92871 17.1626 3.2876 17.7144 4.00537C18.271 4.72314 18.5493 5.72168 18.5493 7.00098V7.12549ZM17.1943 6.97168C17.1943 6.07812 17.0039 5.37256 16.623 4.85498C16.2422 4.3374 15.7197 4.07861 15.0557 4.07861C14.2354 4.07861 13.6201 4.44238 13.21 5.16992V8.95654C13.6152 9.6792 14.2354 10.0405 15.0703 10.0405C15.7197 10.0405 16.2349 9.78418 16.6157 9.27148C17.0015 8.75391 17.1943 7.9873 17.1943 6.97168ZM23.5664 11.1465C22.4922 11.1465 21.6182 10.7949 20.9443 10.0918C20.2705 9.38379 19.9336 8.43896 19.9336 7.25732V7.0083C19.9336 6.22217 20.0825 5.52148 20.3804 4.90625C20.6831 4.28613 21.103 3.80273 21.6401 3.45605C22.1821 3.10449 22.7681 2.92871 23.3979 2.92871C24.4282 2.92871 25.229 3.26807 25.8003 3.94678C26.3716 4.62549 26.6572 5.59717 26.6572 6.86182V7.42578H21.2886C21.3081 8.20703 21.5352 8.83936 21.9697 9.32275C22.4092 9.80127 22.9658 10.0405 23.6396 10.0405C24.1182 10.0405 24.5234 9.94287 24.8555 9.74756C25.1875 9.55225 25.478 9.29346 25.7271 8.97119L26.5547 9.61572C25.8906 10.6362 24.8945 11.1465 23.5664 11.1465ZM23.3979 4.04199C22.8511 4.04199 22.3921 4.24219 22.021 4.64258C21.6499 5.03809 21.4204 5.59473 21.3325 6.3125H25.3022V6.20996C25.2632 5.52148 25.0776 4.98926 24.7456 4.61328C24.4136 4.23242 23.9644 4.04199 23.3979 4.04199ZM29.5137 3.0752L29.5576 4.07129C30.1631 3.30957 30.9541 2.92871 31.9307 2.92871C33.6055 2.92871 34.4502 3.87354 34.4648 5.76318V11H33.1099V5.75586C33.105 5.18457 32.9731 4.76221 32.7144 4.48877C32.4604 4.21533 32.0625 4.07861 31.5205 4.07861C31.0811 4.07861 30.6953 4.1958 30.3633 4.43018C30.0312 4.66455 29.7725 4.97217 29.5869 5.35303V11H28.2319V3.0752H29.5137ZM16.3979 27.8457H11.3345L10.1973 31H8.55371L13.1689 18.9141H14.5635L19.187 31H17.5518L16.3979 27.8457ZM11.8159 26.5342H15.9248L13.8662 20.8813L11.8159 26.5342ZM22.2417 31H20.7061V18.25H22.2417V31ZM26.3755 31H24.8398V18.25H26.3755V31ZM3.59717 42.2612H1.42627V46H0.201172V36.7578H3.26074C4.30176 36.7578 5.10156 36.9948 5.66016 37.4688C6.22298 37.9427 6.50439 38.6325 6.50439 39.5381C6.50439 40.1136 6.34782 40.6151 6.03467 41.0425C5.72575 41.4699 5.29411 41.7894 4.73975 42.001L6.91064 45.9238V46H5.60303L3.59717 42.2612ZM1.42627 41.2646H3.29883C3.90397 41.2646 4.38428 41.1081 4.73975 40.7949C5.09945 40.4818 5.2793 40.0628 5.2793 39.5381C5.2793 38.9668 5.10791 38.5288 4.76514 38.2241C4.4266 37.9194 3.93571 37.765 3.29248 37.7607H1.42627V41.2646ZM10.8843 46.127C9.95329 46.127 9.1958 45.8223 8.61182 45.2129C8.02783 44.5993 7.73584 43.7804 7.73584 42.7563V42.5405C7.73584 41.8592 7.86491 41.252 8.12305 40.7188C8.38542 40.1813 8.74935 39.7624 9.21484 39.4619C9.68457 39.1572 10.1924 39.0049 10.7383 39.0049C11.6312 39.0049 12.3252 39.299 12.8203 39.8872C13.3154 40.4754 13.563 41.3175 13.563 42.4136V42.9023H8.91016C8.92708 43.5794 9.12386 44.1274 9.50049 44.5464C9.88135 44.9611 10.3638 45.1685 10.9478 45.1685C11.3625 45.1685 11.7137 45.0838 12.0015 44.9146C12.2892 44.7453 12.541 44.521 12.7568 44.2417L13.4741 44.8003C12.8986 45.6847 12.0353 46.127 10.8843 46.127ZM10.7383 39.9697C10.2643 39.9697 9.86654 40.1432 9.54492 40.4902C9.22331 40.833 9.02441 41.3154 8.94824 41.9375H12.3887V41.8486C12.3548 41.252 12.194 40.7907 11.9062 40.4648C11.6185 40.1348 11.2292 39.9697 10.7383 39.9697ZM16.2036 46H15.0293V36.25H16.2036V46ZM20.939 46.127C20.008 46.127 19.2505 45.8223 18.6665 45.2129C18.0825 44.5993 17.7905 43.7804 17.7905 42.7563V42.5405C17.7905 41.8592 17.9196 41.252 18.1777 40.7188C18.4401 40.1813 18.804 39.7624 19.2695 39.4619C19.7393 39.1572 20.2471 39.0049 20.793 39.0049C21.6859 39.0049 22.3799 39.299 22.875 39.8872C23.3701 40.4754 23.6177 41.3175 23.6177 42.4136V42.9023H18.9648C18.9818 43.5794 19.1785 44.1274 19.5552 44.5464C19.936 44.9611 20.4185 45.1685 21.0024 45.1685C21.4172 45.1685 21.7684 45.0838 22.0562 44.9146C22.3439 44.7453 22.5957 44.521 22.8115 44.2417L23.5288 44.8003C22.9533 45.6847 22.09 46.127 20.939 46.127ZM20.793 39.9697C20.319 39.9697 19.9212 40.1432 19.5996 40.4902C19.278 40.833 19.0791 41.3154 19.0029 41.9375H22.4434V41.8486C22.4095 41.252 22.2487 40.7907 21.9609 40.4648C21.6732 40.1348 21.2839 39.9697 20.793 39.9697ZM27.1406 44.2798L28.7402 39.1318H29.9971L27.2358 47.0601C26.8084 48.2026 26.1292 48.7739 25.1982 48.7739L24.9761 48.7549L24.5381 48.6724V47.7202L24.8555 47.7456C25.2533 47.7456 25.5622 47.6652 25.7822 47.5044C26.0065 47.3436 26.1906 47.0495 26.3345 46.6221L26.5947 45.9238L24.1445 39.1318H25.4268L27.1406 44.2798ZM35.0498 44.1782C35.0498 43.8608 34.9292 43.6154 34.688 43.4419C34.451 43.2642 34.0342 43.1118 33.4375 42.9849C32.8451 42.8579 32.3732 42.7056 32.022 42.5278C31.675 42.3501 31.4168 42.1385 31.2476 41.8931C31.0825 41.6476 31 41.3556 31 41.0171C31 40.4543 31.237 39.9782 31.7109 39.5889C32.1891 39.1995 32.7985 39.0049 33.5391 39.0049C34.3177 39.0049 34.9482 39.2059 35.4307 39.6079C35.9173 40.0099 36.1606 40.5241 36.1606 41.1504H34.98C34.98 40.8288 34.8424 40.5516 34.5674 40.3188C34.2965 40.0861 33.9538 39.9697 33.5391 39.9697C33.1117 39.9697 32.7773 40.0628 32.5361 40.249C32.2949 40.4352 32.1743 40.6785 32.1743 40.979C32.1743 41.2625 32.2865 41.4762 32.5107 41.6201C32.735 41.764 33.1392 41.9015 33.7231 42.0327C34.3114 42.1639 34.7874 42.3205 35.1514 42.5024C35.5153 42.6844 35.784 42.9045 35.9575 43.1626C36.1353 43.4165 36.2241 43.7275 36.2241 44.0957C36.2241 44.7093 35.9787 45.2023 35.4878 45.5747C34.9969 45.9429 34.36 46.127 33.5771 46.127C33.027 46.127 32.5404 46.0296 32.1172 45.835C31.694 45.6403 31.3618 45.3695 31.1206 45.0225C30.8836 44.6712 30.7651 44.2925 30.7651 43.8862H31.9395C31.9606 44.2798 32.1172 44.5929 32.4092 44.8257C32.7054 45.0542 33.0947 45.1685 33.5771 45.1685C34.0215 45.1685 34.377 45.0796 34.6436 44.9019C34.9144 44.7199 35.0498 44.4787 35.0498 44.1782Z" fill="black"/>
</svg>
